<svg xmlns="http://www.w3.org/2000/svg" id="Layer_1" data-name="Layer 1" viewBox="0 0 2078.21 557.62">
  <defs>
    <style>.cls-1{fill:#62aa57;}.cls-2{fill:#fff;}</style>
  </defs>
  <polygon class="cls-1" points="356.07 451.4 435.27 378.71 425.15 367.68 333.94 451.4 356.07 451.4"/>
  <polygon class="cls-1" points="316.49 451.4 412.09 363.66 385.56 367.68 294.35 451.4 316.49 451.4"/>
  <path class="cls-2" d="M330.78,298.89a8,8,0,0,1,2.19,2.72,7.85,7.85,0,0,1,.81,3.46,7.64,7.64,0,0,1-1.19,4.18,8,8,0,0,1-3.44,2.94,12.33,12.33,0,0,1-5.32,1.07H312.45V282.73H323.4a12.51,12.51,0,0,1,5.3,1,7.58,7.58,0,0,1,3.28,2.78,7.36,7.36,0,0,1,1.09,3.95,6.73,6.73,0,0,1-1.46,4.48,8.23,8.23,0,0,1-3.88,2.57A6.43,6.43,0,0,1,330.78,298.89Zm-14.35-3h6.7a6.45,6.45,0,0,0,4.34-1.32,5.07,5.07,0,0,0,.09-7.18l-.09-.09A6.62,6.62,0,0,0,323,286h-6.61Zm11.7,12.65a4.85,4.85,0,0,0,1.66-3.89,5,5,0,0,0-1.75-4,7,7,0,0,0-4.69-1.47h-6.92V310h7.05a7,7,0,0,0,4.65-1.43Z"/>
  <path class="cls-2" d="M343.28,310H354v3.24H339.29V282.73h4Z"/>
  <path class="cls-2" d="M364.3,311.57a14.57,14.57,0,0,1-5.54-5.56,16.84,16.84,0,0,1,0-16.07,14.57,14.57,0,0,1,5.54-5.56,16.1,16.1,0,0,1,15.55,0,14.34,14.34,0,0,1,5.52,5.54,17.15,17.15,0,0,1,0,16.11,14.34,14.34,0,0,1-5.52,5.54,16.1,16.1,0,0,1-15.55,0Zm13.51-2.95a10.5,10.5,0,0,0,4-4.25,14.69,14.69,0,0,0,0-12.81,10.45,10.45,0,0,0-4-4.23,12,12,0,0,0-11.56,0,10.45,10.45,0,0,0-4,4.23,14.69,14.69,0,0,0,0,12.81,10.5,10.5,0,0,0,4,4.25,11.86,11.86,0,0,0,11.52,0Z"/>
  <path class="cls-2" d="M415.76,291.58a9.47,9.47,0,0,0-3.68-4.14,10.58,10.58,0,0,0-5.6-1.47,11.39,11.39,0,0,0-5.76,1.47,10.27,10.27,0,0,0-4,4.21,14.3,14.3,0,0,0,0,12.63,10.32,10.32,0,0,0,4,4.18,11.39,11.39,0,0,0,5.76,1.47,10.43,10.43,0,0,0,7.36-2.67,11.05,11.05,0,0,0,3.37-7.23H405v-3.24h16.43v3.07a15.34,15.34,0,0,1-2.37,6.9,14.75,14.75,0,0,1-12.61,6.76,15.37,15.37,0,0,1-7.75-2,14.59,14.59,0,0,1-5.54-5.54,16.8,16.8,0,0,1,0-16.05,14.51,14.51,0,0,1,5.54-5.56,15.37,15.37,0,0,1,7.75-2,15.57,15.57,0,0,1,8.6,2.41,13.78,13.78,0,0,1,5.46,6.79Z"/>
  <path class="cls-2" d="M431,312.49a8.93,8.93,0,0,1-3.74-3,7.65,7.65,0,0,1-1.4-4.41h4.25a5.57,5.57,0,0,0,1.77,3.62,6.37,6.37,0,0,0,4.53,1.46,6.62,6.62,0,0,0,4.49-1.42,4.6,4.6,0,0,0,1.64-3.66,4.16,4.16,0,0,0-1-2.84,6.13,6.13,0,0,0-2.41-1.67,35.92,35.92,0,0,0-3.9-1.22,35.54,35.54,0,0,1-4.84-1.58,7.77,7.77,0,0,1-3.11-2.48,7.23,7.23,0,0,1-1.29-4.53,7.93,7.93,0,0,1,1.27-4.42,8.34,8.34,0,0,1,3.57-3,12.43,12.43,0,0,1,5.28-1,11,11,0,0,1,7,2.14,8,8,0,0,1,3.09,5.7h-4.38A4.72,4.72,0,0,0,440,287a6.51,6.51,0,0,0-4.29-1.33,6.2,6.2,0,0,0-4.08,1.29,4.42,4.42,0,0,0-1.57,3.61,3.93,3.93,0,0,0,.94,2.72,5.92,5.92,0,0,0,2.32,1.59,37.91,37.91,0,0,0,3.87,1.25,39.81,39.81,0,0,1,4.87,1.64,8.27,8.27,0,0,1,3.15,2.5,7.27,7.27,0,0,1,1.31,4.58,8.07,8.07,0,0,1-1.18,4.2,8.7,8.7,0,0,1-3.5,3.2,11.58,11.58,0,0,1-5.48,1.23A12.9,12.9,0,0,1,431,312.49Z"/>
  <rect class="cls-1" x="707.22" y="109.65" width="61.22" height="54.94"/>
  <rect class="cls-2" x="707.22" y="174.42" width="61.22" height="277.29"/>
  <polygon class="cls-2" points="312.45 324.14 312.45 368 402.65 368 402.65 451.71 446.5 451.71 446.5 324.14 312.45 324.14"/>
  <path class="cls-2" d="M412.61,134.41q-16.82-10.74-43-19.62t-59.35-8.88q-37.39,0-68,13.08a158.09,158.09,0,0,0-53,36.69,160.65,160.65,0,0,0-34.35,56.07Q143,244.24,143,283.48a183.1,183.1,0,0,0,11.68,65.42,165.13,165.13,0,0,0,33.88,54.68q22.19,23.84,54,37.38a173.43,173.43,0,0,0,34.08,10.44l62.16-57a142.34,142.34,0,0,1-22.87,1.75q-33.18,0-57.71-14.72a98.92,98.92,0,0,1-37.85-40.89Q207,314.33,207,280.21q0-32.7,14.49-58.65A112.48,112.48,0,0,1,260,180.44a95.83,95.83,0,0,1,52.1-15.19q24.76,0,44.39,9.12t31.78,18c12.15,8.88,31.88-19.14,53.66-32.75C431.69,146,412.61,134.41,412.61,134.41Z"/>
  <path class="cls-2" d="M678.67,301.47Q663,283.41,638,272.27a86.83,86.83,0,0,0,27.79-25.47q14.49-20.79,14.49-51.17,0-43-30.84-64.49t-84.12-21.49h-96.7V257.09h61.21V169h38.78q22,0,35,9.82t13.09,29.9c0,11.53-2,23-10.28,30.38-6.61,5.94-76.64,74.32-76.64,74.32h42A121.85,121.85,0,0,1,601,316.93c9.5,2.33,17.73,6.05,23.37,12.38,7.58,8.53,9.11,12.29,9.11,22.87q0,22-16.82,32.25T576.1,394.7H529.84V324.14H468.62V451.71H578.9a177.41,177.41,0,0,0,43.7-5.38,113.15,113.15,0,0,0,37.85-17.05,85.7,85.7,0,0,0,26.63-30.84q10-19.15,10-46.27Q697.13,322.74,678.67,301.47Z"/>
  <path class="cls-1" d="M993.92,140.57a16.75,16.75,0,0,0-7.12-7,23.31,23.31,0,0,0-10.91-2.42q-10.85,0-17.37,7.12t-6.53,19q0,12.67,6.86,19.79t18.87,7.12A22.82,22.82,0,0,0,991.63,180a23.75,23.75,0,0,0,8.3-12H971.58V151.54h48.59v20.77a43.63,43.63,0,0,1-8.42,15.54,44.48,44.48,0,0,1-15.09,11.63A46.66,46.66,0,0,1,976,203.92,48.9,48.9,0,0,1,951.79,198a42.26,42.26,0,0,1-16.59-16.53,48.42,48.42,0,0,1-5.94-24.16,48.92,48.92,0,0,1,5.94-24.23,42.26,42.26,0,0,1,16.53-16.59,48.42,48.42,0,0,1,24.16-6q16.47,0,27.76,8a37.68,37.68,0,0,1,15,22.08Z"/>
  <path class="cls-1" d="M1054.92,129.47V148h29.91v17.25h-29.91v20.11h33.83v17.9h-56.17v-91.7h56.17v17.9Z"/>
  <path class="cls-1" d="M1169.21,111.57v17.9h-24.29v73.8h-22.34v-73.8h-24.3v-17.9Z"/>
  <path class="cls-2" d="M935.14,254.51a42.11,42.11,0,0,1,16.39-16.59A47.61,47.61,0,0,1,975.37,232q16.32,0,28,8.62a41.47,41.47,0,0,1,15.55,23.51H994.31a19.85,19.85,0,0,0-7.77-8.75,21.85,21.85,0,0,0-11.43-3q-10.32,0-16.72,7.18t-6.4,19.2q0,12,6.4,19.2t16.72,7.19a21.85,21.85,0,0,0,11.43-3,19.85,19.85,0,0,0,7.77-8.75h24.56a41.12,41.12,0,0,1-15.55,23.45q-11.62,8.56-28,8.56a47.53,47.53,0,0,1-23.84-6,42.06,42.06,0,0,1-16.39-16.52,52.74,52.74,0,0,1,0-48.4Z"/>
  <path class="cls-2" d="M1054.92,233v91.7h-22.34V233Z"/>
  <path class="cls-2" d="M1137.08,233v17.9h-24.29v73.8h-22.34V250.9h-24.3V233Z"/>
  <path class="cls-2" d="M1170.65,233v91.7h-22.34V233Z"/>
  <path class="cls-2" d="M1210.62,306.44h39.45v18.28h-64.79v-17l39.19-56.43h-39.19V233h64.79v17Z"/>
  <path class="cls-2" d="M1287,250.92v18.55h30v17.24h-30v20.12h33.83v17.89H1264.7V233h56.16v17.9Z"/>
  <path class="cls-2" d="M1417.39,324.72h-22.33l-37.36-56.56v56.56h-22.34V233h22.34l37.36,56.83V233h22.33Z"/>
  <path class="cls-2" d="M1448.74,322.37A29.34,29.34,0,0,1,1436,312.7a26.4,26.4,0,0,1-5-15.41h23.77c.35,3.4,1.52,6,3.53,7.77a11.32,11.32,0,0,0,7.84,2.68,12.24,12.24,0,0,0,7.83-2.28,7.67,7.67,0,0,0,2.88-6.34,7.52,7.52,0,0,0-2.29-5.62,18.33,18.33,0,0,0-5.62-3.65,87.49,87.49,0,0,0-9.47-3.27,103.1,103.1,0,0,1-14.5-5.49,26.72,26.72,0,0,1-9.66-8.09q-4.05-5.36-4-14,0-12.8,9.27-20t24.17-7.25q15.15,0,24.43,7.25t9.92,20.18h-24.16a9.51,9.51,0,0,0-3.27-7,11.45,11.45,0,0,0-7.7-2.55,9.65,9.65,0,0,0-6.54,2.16,8.3,8.3,0,0,0,1.7,13.13,68.41,68.41,0,0,0,13.06,5.35,123,123,0,0,1,14.44,5.75,27.52,27.52,0,0,1,9.6,8q4,5.22,4,13.45a26.44,26.44,0,0,1-4,14.24,27.85,27.85,0,0,1-11.56,10.19,39.46,39.46,0,0,1-17.89,3.79A47,47,0,0,1,1448.74,322.37Z"/>
  <path class="cls-2" d="M1593.34,233v91.7H1571V287h-34.75v37.75h-22.34V233h22.34v36H1571V233Z"/>
  <path class="cls-2" d="M1631.74,233v91.7h-22.33V233Z"/>
  <path class="cls-2" d="M1714.17,277.11a26.91,26.91,0,0,1-11.24,10.65q-7.58,4-18.81,4.05h-13.84v32.91h-22.34V233h36.18q11,0,18.55,3.79A26.12,26.12,0,0,1,1714,247.26a30.48,30.48,0,0,1,3.78,15.29A29.6,29.6,0,0,1,1714.17,277.11ZM1692,271c2.09-2,3.13-4.83,3.14-8.49s-1-6.49-3.14-8.49-5.27-3-9.54-3h-12.14v23h12.14Q1688.84,274,1692,271Z"/>
  <path class="cls-2" d="M1001.36,407.06a22.41,22.41,0,0,1,4.84,14.17q0,11.49-8,18.22t-22.4,6.73H933.05v-91.7h41.28q14,0,21.87,6.4t7.91,17.37q0,8.1-4.25,13.46a21.93,21.93,0,0,1-11.3,7.44A21.41,21.41,0,0,1,1001.36,407.06Zm-46-15.48H970q5.49,0,8.43-2.42c2-1.61,2.94-4,2.94-7.12a8.93,8.93,0,0,0-2.94-7.18c-1.94-1.65-4.77-2.48-8.43-2.48H955.38Zm25.15,34c2-1.7,3.08-4.16,3.07-7.38a9.45,9.45,0,0,0-3.2-7.58c-2.14-1.83-5.07-2.74-8.82-2.74h-16.2v20.24h16.46c3.77,0,6.66-.82,8.71-2.51Z"/>
  <path class="cls-2" d="M1097.76,354.48,1066,415.87v30.31h-22.33V415.87l-31.75-61.39h25.35l17.76,38.4,17.63-38.4Z"/>
  <path class="cls-2" d="M1156.8,354.48v91.7h-22.33v-91.7Z"/>
  <path class="cls-2" d="M1255,446.18h-22.34l-37.35-56.56v56.56H1173v-91.7h22.34l37.35,56.82V354.48H1255Z"/>
  <path class="cls-2" d="M1357.31,354.48l-32.53,91.7h-28l-32.52-91.7H1288l22.73,69.23,22.86-69.23Z"/>
  <path class="cls-2" d="M1388.92,372.38v18.54h29.91v17.25h-29.91v20.11h33.83v17.9h-56.17v-91.7h56.17v17.9Z"/>
  <path class="cls-2" d="M1452.4,443.83a29.34,29.34,0,0,1-12.74-9.67,26.4,26.4,0,0,1-5-15.41h23.77c.35,3.39,1.52,6,3.53,7.77a11.3,11.3,0,0,0,7.83,2.68,12.2,12.2,0,0,0,7.84-2.29,7.64,7.64,0,0,0,2.87-6.33,7.51,7.51,0,0,0-2.28-5.62,18.66,18.66,0,0,0-5.62-3.66,90.44,90.44,0,0,0-9.47-3.26,103.1,103.1,0,0,1-14.5-5.49,26.75,26.75,0,0,1-9.66-8.1q-4-5.35-4-14,0-12.81,9.27-20.06t24.17-7.25q15.15,0,24.42,7.25t9.93,20.19h-24.17a9.46,9.46,0,0,0-3.26-7,11.48,11.48,0,0,0-7.71-2.55,9.6,9.6,0,0,0-6.53,2.16,8.29,8.29,0,0,0,1.7,13.12,68.45,68.45,0,0,0,13.06,5.36,122.28,122.28,0,0,1,14.44,5.75,27.41,27.41,0,0,1,9.6,8c2.69,3.49,4,8,4,13.46a26.44,26.44,0,0,1-4,14.24,27.9,27.9,0,0,1-11.56,10.18,39.6,39.6,0,0,1-17.89,3.79A47.34,47.34,0,0,1,1452.4,443.83Z"/>
  <path class="cls-2" d="M1583.54,354.48v17.9h-24.29v73.8h-22.34v-73.8h-24.29v-17.9Z"/>
  <path class="cls-2" d="M1698.62,354.48v91.7h-22.33v-55l-20.51,55h-18l-20.64-55.12v55.12h-22.33v-91.7h26.38L1646.9,418l25.47-63.48Z"/>
  <path class="cls-2" d="M1737,372.38v18.54h29.91v17.25H1737v20.11h33.83v17.9h-56.17v-91.7h56.17v17.9Z"/>
  <path class="cls-2" d="M1867.39,446.18h-22.34l-37.36-56.56v56.56h-22.34v-91.7h22.34l37.36,56.82V354.48h22.34Z"/>
  <path class="cls-2" d="M1949.55,354.48v17.9h-24.3v73.8h-22.34v-73.8h-24.29v-17.9Z"/>
  <rect class="cls-2" x="847.55" y="105.91" width="5.75" height="345.8"/>
</svg>
    